<svg width="1979" height="909" viewBox="0 0 1979 909" fill="none" xmlns="http://www.w3.org/2000/svg">
<g clip-path="url(#clip0_43_248)">
<path d="M-45.6687 572.947L-527.023 -202.354L1063.95 219.993L996.926 97.3438L1180.21 -9.79302L2069.93 334.907L1972.44 195.966L2078.38 96.2807L2357.12 363.045L3207.77 -134.675L3031.47 299.513L2339.02 399.616L2127.87 281.867L2153.82 367.843L2115.83 403.226L1202.66 151.451L1216.28 261.453L1165.02 418.616L-45.6687 572.947Z" fill="#FF6A13"/>
<path d="M6.30813 525.432L-409.637 -121.153L3.23791 -18.5978L103.489 285.23L112.418 285.546L202.764 27.9645L363.699 70.1785L412.928 299.923L417.393 300.082L481.177 98.1855L620.716 134.425L467.91 472.499L341.487 486.646L289.661 288.103L284.452 287.919L206.825 501.991L6.30813 525.432Z" fill="#101114"/>
<path d="M596.737 458.221L643.158 139.392L735.121 161.31L683.798 448.136L596.737 458.221Z" fill="#101114"/>
<path d="M722.414 442.374L775.385 170.972L830.075 184.727L863.581 312.177L889.341 199.599L936.254 210.841L884.825 425.26L844.915 429.36L810.566 325.682L787.984 434.821L722.414 442.374Z" fill="#101114"/>
<path d="M907.291 421.991L959.261 216.879L997.539 226.073L960.585 367.86L996.894 367.115L983.934 413.387L907.291 421.991Z" fill="#101114"/>
<path d="M994.928 414.356L1044.7 238.483L1072.31 245.556L1024.67 410.476L994.928 414.356Z" fill="#101114"/>
<path d="M1035.79 407.966L1083.87 247.126L1102.87 251.573L1102.51 327.317L1124.16 256.971L1143.43 262.008L1099.92 400.371L1083.01 402.384L1080.75 335.254L1059.98 405.341L1035.79 407.966Z" fill="#101114"/>
<path d="M1110.41 399L1152.78 264.246L1187.44 273.077L1177.47 303.031L1158.78 300.305L1152.67 319.207L1166.64 320.679L1157.05 348.909L1143.47 348.971L1137.64 368.037L1157.7 367.006L1148.9 394.269L1110.41 399Z" fill="#101114"/>
<path d="M1198.43 257.285L1189.55 259.577L1199.33 262.422L1198.43 257.285Z" fill="#101114"/>
<path d="M1196.91 244.958L1177.3 255.777L1150.7 248.043L1195.09 235.009L1196.91 244.958Z" fill="#101114"/>
<path d="M1193.92 228.234L1139.92 243.809L1115.34 237.043L1163.04 222.903L1159.35 207.564L1189.24 197.869L1193.92 228.234Z" fill="#101114"/>
<path d="M1188.54 193.062L1084.78 227.513L1078.64 213.717L1186.11 175.921L1188.54 193.062Z" fill="#101114"/>
<path d="M1184.59 166.635L1074.56 206.187L1067.85 193.239L1111.34 155.24L1059.45 175.887L1050.74 157.872L1175.09 103.621L1178.17 123.826L1124.56 168.527L1181.81 146.875L1184.59 166.635Z" fill="#101114"/>
<path d="M1172.85 89.9222L1045.88 147.516L1020.38 97.35L1050.45 81.0118L1063.21 112.29L1081.37 103.347L1073.05 80.1902L1104.48 63.1625L1111.84 88.4974L1131.64 79.1696L1122.86 39.9197L1161.65 19.0229L1172.85 89.9222Z" fill="#101114"/>
<path d="M1260.67 144.691L1197.95 20.1221L1398.09 95.1856L1391.95 143.24L1502.08 135.492L1594.89 170.408L1590.23 207.974L1663.62 196.148L1747.4 227.416L1598.18 242.101L1506.45 215.824L1510.33 176.844L1407.32 187.064L1260.67 144.691Z" fill="#101114"/>
<path d="M1760.83 232.055L1695.96 269.705L1761.86 289.241L1819.4 254.66L1760.83 232.055Z" fill="#101114"/>
<path d="M1845.41 264.46L1790.97 297.487L1839.29 311.961L1862.88 295.874L1881.61 323.171L1914 332.919L1954.92 305.517L1923.18 293.295L1900.79 306.65L1883.18 278.838L1845.41 264.46Z" fill="#101114"/>
<path d="M1970.14 311.34L1930.84 337.416L1988.94 354.594L1998.69 348.254L1970.75 339.296L1997.34 321.725L1970.14 311.34Z" fill="#101114"/>
</g>
<defs>
<clipPath id="clip0_43_248">
<rect width="1979" height="909" fill="white"/>
</clipPath>
</defs>
</svg>
