<svg width="188" height="28" viewBox="0 0 188 28" fill="none" xmlns="http://www.w3.org/2000/svg">
<g clip-path="url(#clip0_43_61)">
<path d="M174.002 27.9034H13.9972C6.29387 27.9034 0 21.6488 0 13.9638C0.0486014 6.27887 6.31818 0 13.9972 0H174.002C181.704 0 187.975 6.25463 187.975 13.9638C187.975 21.673 181.704 27.9034 174.002 27.9034ZM13.9972 2.81217C7.84912 2.81217 2.81889 7.8304 2.81889 13.9881C2.81889 20.1458 7.84912 25.1398 13.9972 25.1398H174.002C180.174 25.1398 185.18 20.1215 185.18 13.9881C185.18 7.85465 180.15 2.8364 174.002 2.8364H13.9972V2.81217Z" fill="#FF6A13"/>
<path d="M173.952 22.8113C169.068 22.8113 165.082 18.8355 165.082 13.9627C165.082 9.0899 169.068 5.08984 173.952 5.08984C178.837 5.08984 182.822 9.06566 182.822 13.9384C182.822 18.8113 178.861 22.8113 173.952 22.8113Z" fill="#FF6A13"/>
<path d="M147.26 20.8797L150.179 7.10742H153.433L155.957 13.5213H156.016L157.377 7.10742H161.223L158.304 20.8797H155.051L152.526 14.4657H152.467L151.106 20.8797H147.26Z" fill="#FF6A13"/>
<path d="M140.66 21.2731C137.405 21.2731 135.236 18.9122 135.236 15.3708C135.236 10.2553 138.688 6.71387 142.337 6.71387C145.392 6.71387 146.675 8.48458 147.326 9.80279L144.486 12.0457C144.328 11.4358 143.717 10.2553 142.337 10.2553C140.857 10.2553 139.18 12.026 139.18 15.1739C139.18 16.9447 140.068 17.7317 141.251 17.7317C141.942 17.7317 142.356 17.4759 142.356 17.4759L142.75 15.6658H141.173L141.686 13.2065H146.813L145.591 19.0105C144.546 20.191 142.731 21.2731 140.66 21.2731Z" fill="#FF6A13"/>
<path d="M128.031 20.8797L130.949 7.10742H134.894L131.975 20.8797H128.031Z" fill="#FF6A13"/>
<path d="M117.402 18.499C117.974 19.6992 119.651 21.2731 122.313 21.2731C125.075 21.2731 127.145 19.5023 127.145 16.5512C127.145 14.5247 125.666 13.3246 124.581 12.4195C123.989 11.9276 123.496 11.4358 123.496 10.9439C123.496 10.452 123.89 10.1569 124.285 10.1569C124.975 10.1569 125.666 10.8455 125.863 11.3374L128.624 9.07482C128.033 7.99272 126.652 6.71387 124.087 6.71387C121.327 6.71387 119.453 8.48458 119.453 11.239C119.453 13.2065 120.735 14.387 121.82 15.2723C122.51 15.8429 123.102 16.3545 123.102 16.9447C123.102 17.4366 122.707 17.83 122.116 17.83C121.13 17.83 120.341 16.9447 120.045 16.256L117.402 18.499Z" fill="#FF6A13"/>
<path d="M110.141 7.10742L107.223 20.8797H115.999L116.709 17.535H111.877L112.291 15.5676H115.644L116.314 12.4196H112.962L113.376 10.4521H118.01L118.72 7.10742H110.141Z" fill="#FF6A13"/>
<path d="M94.6992 20.8797L97.6181 7.10742H101.7C104.56 7.10742 106.828 9.27164 106.828 12.6163C106.828 17.7318 103.574 20.8797 99.4325 20.8797H94.6992ZM99.3536 17.535H99.8269C101.306 17.535 102.884 15.961 102.884 12.8131C102.884 11.3375 102.292 10.4521 101.306 10.4521H100.852L99.3536 17.535Z" fill="#FF6A13"/>
<path d="M31.2504 20.921H29.3793C28.9661 20.921 28.6989 20.5816 28.7717 20.1695L30.9831 7.73297C31.056 7.32085 31.4692 6.98145 31.8823 6.98145H33.7533C34.1665 6.98145 34.4339 7.32085 34.3609 7.73297L32.1495 20.1695C32.0524 20.6059 31.6636 20.921 31.2504 20.921Z" fill="white"/>
<path d="M53.6803 7.00586C54.0933 7.00586 54.3607 7.34526 54.2878 7.75738L52.5625 17.7938H57.1796C57.5928 17.7938 57.86 18.1333 57.7871 18.5454L57.4955 20.2181C57.4225 20.6303 57.0095 20.9697 56.5964 20.9697H50.2539H49.3304C48.9173 20.9697 48.6501 20.6303 48.7229 20.2181L50.9344 7.75738C51.0072 7.34526 51.4203 7.00586 51.8335 7.00586H53.6803Z" fill="white"/>
<path d="M90.3728 6.98145C90.7859 6.98145 91.0533 7.32085 90.9803 7.73297L90.6887 9.40573C90.6158 9.81785 90.2027 10.1572 89.7896 10.1572H84.2976L83.8845 12.4846H88.9634C89.3765 12.4846 89.6437 12.824 89.5709 13.2361L89.3035 14.7149C89.2307 15.127 88.8176 15.4665 88.4044 15.4665H83.3499L82.9368 17.7937H88.4531C88.8662 17.7937 89.1335 18.1331 89.0605 18.5453L88.7689 20.1938C88.696 20.6059 88.0886 20.9453 87.6754 20.9453H80.7012H79.7777C79.3646 20.9453 79.0972 20.6059 79.1702 20.1938L81.3572 7.73297C81.4302 7.32085 81.8433 6.98145 82.2563 6.98145H90.3728Z" fill="white"/>
<path d="M44.9817 7.73297L43.6695 15.1512L41.045 7.68449C40.8992 7.27236 40.5104 7.00569 40.0244 7.00569H37.8373C37.4242 7.00569 37.0354 7.34508 36.9382 7.75721L34.7268 20.218C34.654 20.6302 34.9212 20.9695 35.3343 20.9695H37.2055C37.6187 20.9695 38.0075 20.6302 38.1046 20.218L39.4169 12.7997L41.9684 20.2665C42.1142 20.6786 42.503 20.9453 42.9891 20.9453H45.2733C45.6864 20.9453 46.0753 20.6059 46.1724 20.1938L48.3838 7.73297C48.4567 7.32085 48.1895 6.98145 47.7763 6.98145H45.9052C45.4677 7.00569 45.0546 7.32085 44.9817 7.73297Z" fill="white"/>
<path d="M25.782 7.44222L21.8696 16.0242V7.58768C21.8696 7.27254 21.6023 7.00586 21.2864 7.00586H18.9778C18.6862 7.00586 18.4189 7.17556 18.2974 7.44222L14.4336 15.9999V7.58768C14.4336 7.27254 14.1662 7.00586 13.8504 7.00586H11.6633C11.3474 7.00586 11.0801 7.27254 11.0801 7.58768V20.3636C11.0801 20.6788 11.3474 20.9454 11.6633 20.9454H14.6765C14.9682 20.9454 15.2354 20.7757 15.357 20.5091L19.0751 12.0725V20.3636C19.0751 20.6788 19.3423 20.9454 19.6582 20.9454H22.5014C22.7931 20.9454 23.0603 20.7757 23.1818 20.5091L29.1112 7.83011C29.2812 7.44222 29.014 7.00586 28.5765 7.00586H26.4381C26.1708 7.00586 25.9035 7.17556 25.782 7.44222Z" fill="white"/>
<path d="M61.7211 20.921H59.85C59.4368 20.921 59.1696 20.5816 59.2424 20.1695L61.4538 7.73297C61.5267 7.32085 61.9399 6.98145 62.3529 6.98145H64.2241C64.6372 6.98145 64.9046 7.32085 64.8316 7.73297L62.6202 20.1695C62.5231 20.5816 62.1343 20.921 61.7211 20.921Z" fill="white"/>
<path d="M75.427 7.73297L74.1148 15.1512L71.4903 7.68449C71.3446 7.27236 70.9557 7.00569 70.4696 7.00569H68.2826C67.8695 7.00569 67.4806 7.34508 67.3835 7.75721L65.1721 20.218C65.0992 20.6302 65.3665 20.9695 65.7797 20.9695H67.6507C68.0639 20.9695 68.4527 20.6302 68.55 20.218L69.8622 12.7997L72.4138 20.2665C72.5595 20.6786 72.9484 20.9453 73.4343 20.9453H75.7186C76.1318 20.9453 76.5205 20.6059 76.6177 20.1938L78.8291 7.73297C78.9021 7.32085 78.6347 6.98145 78.2216 6.98145H76.3019C75.8887 7.00569 75.4999 7.32085 75.427 7.73297Z" fill="white"/>
</g>
<defs>
<clipPath id="clip0_43_61">
<rect width="188" height="28" fill="white"/>
</clipPath>
</defs>
</svg>
